<svg width="206" height="64" viewBox="0 0 206 64" fill="none" xmlns="http://www.w3.org/2000/svg">
<path d="M142.584 43L140.824 37.624C140.504 36.568 140.248 35.512 138.136 35.512H134.456V43H129.56V22.36H139.896C143.928 22.36 147.32 24.184 147.32 29.112C147.32 32.376 145.304 34.04 141.848 34.04V34.232C143.16 34.392 145.08 34.808 145.816 36.984L147.896 43H142.584ZM134.456 32.312H137.944C140.6 32.312 142.648 32.088 142.648 29.208C142.648 26.68 140.568 26.296 138.04 26.296H134.456V32.312ZM151.748 22.392H156.612V43H151.748V22.392ZM172.628 43H161.748V22.392H172.884C179.604 22.392 182.676 26.648 182.676 32.696C182.676 38.744 179.38 43 172.628 43ZM166.644 26.296V39.096L172.468 39.064C175.892 39.064 177.812 37.144 177.812 32.696C177.812 28.28 175.635 26.296 172.244 26.296H166.644ZM199.303 43L197.543 37.624C197.223 36.568 196.967 35.512 194.855 35.512H191.175V43H186.279V22.36H196.615C200.647 22.36 204.039 24.184 204.039 29.112C204.039 32.376 202.023 34.04 198.567 34.04V34.232C199.879 34.392 201.799 34.808 202.535 36.984L204.615 43H199.303ZM191.175 32.312H194.663C197.319 32.312 199.367 32.088 199.367 29.208C199.367 26.68 197.287 26.296 194.759 26.296H191.175V32.312Z" fill="#2B2B2B"/>
<rect x="79" width="32" height="32" fill="#2B2B2B"/>
<rect y="32" width="32" height="32" fill="#2B2B2B"/>
<path d="M33 64V32L78 0V32L33 64Z" fill="#2B2B2B"/>
<path d="M78.5 33H111L90 48H57L78.5 33Z" fill="#2B2B2B"/>
<path d="M21 16H54L32.5 31H0L21 16Z" fill="#2B2B2B"/>
</svg>
